<?xml version="1.0" standalone="no"?><!DOCTYPE svg PUBLIC "-//W3C//DTD SVG 1.1//EN" "http://www.w3.org/Graphics/SVG/1.1/DTD/svg11.dtd"><svg t="1743750125293" class="icon" viewBox="0 0 1024 1024" version="1.1" xmlns="http://www.w3.org/2000/svg" p-id="17387" xmlns:xlink="http://www.w3.org/1999/xlink" width="200" height="200"><path d="M0 0m384 0l256 0q384 0 384 384l0 256q0 384-384 384l-256 0q-384 0-384-384l0-256q0-384 384-384Z" fill="#1E90FF" p-id="17388"></path><path d="M406.997333 393.002667a89.856 89.856 0 1 0-89.856-89.856 89.984 89.984 0 0 0 89.856 89.856z m190.421334 0a89.856 89.856 0 1 0-89.856-89.856 89.984 89.984 0 0 0 89.770666 89.856z m144.213333-31.914667a89.856 89.856 0 1 0 89.856 89.856 89.984 89.984 0 0 0-89.856-89.813333z m-391.210667 89.856a89.856 89.856 0 1 0-89.856 89.856 89.984 89.984 0 0 0 89.856-89.856z" fill="#87CEFA" p-id="17389"></path><path d="M378.112 826.410667a145.066667 145.066667 0 0 1-21.632-1.749334 137.984 137.984 0 0 1-28.544-264.832 81.322667 81.322667 0 0 0 45.354667-42.666666 137.941333 137.941333 0 0 1 251.136-1.493334 75.392 75.392 0 0 0 45.909333 40.490667 137.984 137.984 0 0 1-18.688 268.330667 136.149333 136.149333 0 0 1-21.674667 1.664 138.794667 138.794667 0 0 1-85.888-29.866667 64 64 0 0 0-39.978666-13.994667 63.402667 63.402667 0 0 0-40.106667 13.994667 139.093333 139.093333 0 0 1-85.888 30.122667z m126.592-107.008a122.538667 122.538667 0 0 1 80.213333 33.066666l34.517334-40.32a173.098667 173.098667 0 0 0-114.048-45.738666 174.933333 174.933333 0 0 0-116.821334 46.677333l36.864 38.4a124.288 124.288 0 0 1 79.274667-32.085333z" fill="#FFFFFF" p-id="17390"></path></svg>